<svg height="511pt" viewBox="-81 1 511 511.99998" width="511pt" xmlns="http://www.w3.org/2000/svg"><path d="m348.808594 500.128906c-7.609375-48.394531-61.046875-55.511718-61.046875-55.511718l-113.042969-27.210938-113.046875 27.210938s-53.4375 7.117187-61.046875 55.511718c-.980469 6.238282 3.894531 11.871094 10.210938 11.871094h327.765624c6.316407 0 11.191407-5.632812 10.207032-11.871094zm0 0" fill="#d4d2d3"/><path d="m31.53125 500.128906c7.609375-48.394531 61.046875-55.511718 61.046875-55.511718l97.59375-23.492188-15.453125-3.71875-113.042969 27.210938s-53.441406 7.117187-61.050781 55.511718c-.980469 6.238282 3.894531 11.871094 10.210938 11.871094h30.90625c-6.316407 0-11.191407-5.632812-10.210938-11.871094zm0 0" fill="#bab8b9"/><path d="m174.71875 223.851562 82.101562 18.617188s-19.679687 97.101562 30.941407 147.722656l-113.042969 27.214844-113.046875-27.214844c50.621094-50.621094 30.941406-147.722656 30.941406-147.722656zm0 0" fill="#d4d2d3"/><path d="m92.578125 390.191406c50.621094-50.621094 30.941406-147.722656 30.941406-147.722656l66.652344-15.113281-15.453125-3.503907-82.105469 18.617188s19.683594 97.101562-30.9375 147.722656l113.042969 27.214844 15.453125-3.722656zm0 0" fill="#bab8b9"/><path d="m286.644531 111.925781c0 61.816407-50.109375 111.925781-111.925781 111.925781s-111.925781-50.109374-111.925781-111.925781c0-61.816406 50.109375-111.925781 111.925781-111.925781s111.925781 50.109375 111.925781 111.925781zm0 0" fill="#d4d2d3"/><path d="m195.320312 213.550781c-61.8125 0-111.925781-50.113281-111.925781-111.925781 0-39.71875 20.691407-74.601562 51.878907-94.46875-42.347657 15.953125-72.480469 56.839844-72.480469 104.769531 0 61.816407 50.109375 111.925781 111.925781 111.925781 22.097656 0 42.695312-6.40625 60.046875-17.457031-12.269531 4.621094-25.558594 7.15625-39.445313 7.15625zm0 0" fill="#bab8b9"/><g fill="#3a484a"><path d="m112.386719 104.410156c-4.265625 0-7.726563-3.457031-7.726563-7.722656v-11.28125c0-4.269531 3.460938-7.726562 7.726563-7.726562 4.269531 0 7.726562 3.457031 7.726562 7.726562v11.28125c0 4.265625-3.457031 7.722656-7.726562 7.722656zm0 0"/><path d="m237.046875 104.410156c-4.265625 0-7.726563-3.457031-7.726563-7.722656v-11.28125c0-4.269531 3.460938-7.726562 7.726563-7.726562 4.269531 0 7.726563 3.457031 7.726563 7.726562v11.28125c0 4.265625-3.457032 7.722656-7.726563 7.722656zm0 0"/><path d="m174.71875 110.433594c-8.226562 0-15.953125-3.445313-21.203125-9.449219-2.808594-3.210937-2.480469-8.09375.734375-10.902344 3.210938-2.804687 8.09375-2.480469 10.902344.734375 2.3125 2.644532 5.800781 4.164063 9.566406 4.164063s7.253906-1.519531 9.566406-4.164063c2.808594-3.214844 7.6875-3.542968 10.902344-.730468 3.210938 2.804687 3.542969 7.6875.730469 10.902343-5.246094 6.003907-12.976563 9.445313-21.199219 9.445313zm0 0"/></g><path d="m256.820312 242.46875c15.03125 0 27.214844-12.183594 27.214844-27.210938 0-15.03125-12.183594-27.214843-27.214844-27.214843h-164.207031c-15.027343 0-27.210937 12.183593-27.210937 27.214843 0 15.027344 12.183594 27.210938 27.210937 27.210938zm0 0" fill="#efedee"/><path d="m96.308594 215.257812c0-15.03125 12.183594-27.214843 27.210937-27.214843h-30.90625c-15.027343 0-27.210937 12.183593-27.210937 27.214843 0 15.027344 12.183594 27.210938 27.210937 27.210938h30.90625c-15.027343 0-27.210937-12.183594-27.210937-27.210938zm0 0" fill="#d4d2d3"/><path d="m287.761719 444.617188c15.03125 0 27.214843-12.183594 27.214843-27.210938 0-15.03125-12.183593-27.214844-27.214843-27.214844h-226.089844c-15.027344 0-27.210937 12.183594-27.210937 27.214844 0 15.027344 12.183593 27.210938 27.210937 27.210938zm0 0" fill="#efedee"/><path d="m65.367188 417.40625c0-15.03125 12.183593-27.214844 27.210937-27.214844h-30.90625c-15.027344 0-27.210937 12.183594-27.210937 27.214844 0 15.027344 12.183593 27.210938 27.210937 27.210938h30.90625c-15.027344 0-27.210937-12.183594-27.210937-27.210938zm0 0" fill="#d4d2d3"/></svg>